<mxfile host="app.diagrams.net" modified="2023-09-24T23:55:20.281Z" agent="Mozilla/5.0 (Windows NT 10.0; Win64; x64) AppleWebKit/537.36 (KHTML, like Gecko) Chrome/116.0.0.0 Safari/537.36" etag="bU_U4Wl_0Q__Bang3enY" version="21.7.5" type="device">
  <diagram name="Page-1" id="RbCrOZhKYqxqLBZojrEW">
    <mxGraphModel dx="1050" dy="542" grid="1" gridSize="10" guides="1" tooltips="1" connect="1" arrows="1" fold="1" page="1" pageScale="1" pageWidth="850" pageHeight="1100" math="0" shadow="0">
      <root>
        <mxCell id="0" />
        <mxCell id="1" parent="0" />
        <mxCell id="dnzGdEvmZZnzn72nh_tT-3" style="edgeStyle=orthogonalEdgeStyle;rounded=0;orthogonalLoop=1;jettySize=auto;html=1;" parent="1" source="dnzGdEvmZZnzn72nh_tT-1" target="dnzGdEvmZZnzn72nh_tT-2" edge="1">
          <mxGeometry relative="1" as="geometry" />
        </mxCell>
        <mxCell id="dnzGdEvmZZnzn72nh_tT-1" value="START" style="strokeWidth=2;html=1;shape=mxgraph.flowchart.start_1;whiteSpace=wrap;" parent="1" vertex="1">
          <mxGeometry x="360" y="20" width="100" height="60" as="geometry" />
        </mxCell>
        <mxCell id="dnzGdEvmZZnzn72nh_tT-5" value="" style="edgeStyle=orthogonalEdgeStyle;rounded=0;orthogonalLoop=1;jettySize=auto;html=1;" parent="1" source="dnzGdEvmZZnzn72nh_tT-2" target="dnzGdEvmZZnzn72nh_tT-4" edge="1">
          <mxGeometry relative="1" as="geometry" />
        </mxCell>
        <mxCell id="dnzGdEvmZZnzn72nh_tT-2" value="&lt;font style=&quot;font-size: 11px;&quot;&gt;INPUT NAMA&lt;/font&gt;" style="shape=parallelogram;html=1;strokeWidth=2;perimeter=parallelogramPerimeter;whiteSpace=wrap;rounded=1;arcSize=12;size=0.23;" parent="1" vertex="1">
          <mxGeometry x="360" y="140" width="100" height="60" as="geometry" />
        </mxCell>
        <mxCell id="dnzGdEvmZZnzn72nh_tT-7" value="" style="edgeStyle=orthogonalEdgeStyle;rounded=0;orthogonalLoop=1;jettySize=auto;html=1;" parent="1" source="dnzGdEvmZZnzn72nh_tT-4" target="dnzGdEvmZZnzn72nh_tT-6" edge="1">
          <mxGeometry relative="1" as="geometry" />
        </mxCell>
        <mxCell id="dnzGdEvmZZnzn72nh_tT-4" value="INPUT NIM" style="shape=parallelogram;html=1;strokeWidth=2;perimeter=parallelogramPerimeter;whiteSpace=wrap;rounded=1;arcSize=12;size=0.23;" parent="1" vertex="1">
          <mxGeometry x="360" y="270" width="100" height="60" as="geometry" />
        </mxCell>
        <mxCell id="dnzGdEvmZZnzn72nh_tT-9" value="" style="edgeStyle=orthogonalEdgeStyle;rounded=0;orthogonalLoop=1;jettySize=auto;html=1;" parent="1" source="dnzGdEvmZZnzn72nh_tT-6" target="dnzGdEvmZZnzn72nh_tT-8" edge="1">
          <mxGeometry relative="1" as="geometry" />
        </mxCell>
        <mxCell id="dnzGdEvmZZnzn72nh_tT-6" value="INPUT TTL" style="shape=parallelogram;html=1;strokeWidth=2;perimeter=parallelogramPerimeter;whiteSpace=wrap;rounded=1;arcSize=12;size=0.23;" parent="1" vertex="1">
          <mxGeometry x="360" y="410" width="100" height="60" as="geometry" />
        </mxCell>
        <mxCell id="dnzGdEvmZZnzn72nh_tT-11" value="" style="edgeStyle=orthogonalEdgeStyle;rounded=0;orthogonalLoop=1;jettySize=auto;html=1;" parent="1" source="dnzGdEvmZZnzn72nh_tT-8" target="dnzGdEvmZZnzn72nh_tT-10" edge="1">
          <mxGeometry relative="1" as="geometry" />
        </mxCell>
        <mxCell id="dnzGdEvmZZnzn72nh_tT-8" value="&lt;font style=&quot;font-size: 11px;&quot;&gt;INPUT ASAL DAERAH&lt;/font&gt;" style="shape=parallelogram;html=1;strokeWidth=2;perimeter=parallelogramPerimeter;whiteSpace=wrap;rounded=1;arcSize=12;size=0.23;" parent="1" vertex="1">
          <mxGeometry x="360" y="530" width="100" height="60" as="geometry" />
        </mxCell>
        <mxCell id="5kT87oJKtSBSKoZ8AL6F-2" value="" style="edgeStyle=orthogonalEdgeStyle;rounded=0;orthogonalLoop=1;jettySize=auto;html=1;" parent="1" source="dnzGdEvmZZnzn72nh_tT-10" target="5kT87oJKtSBSKoZ8AL6F-1" edge="1">
          <mxGeometry relative="1" as="geometry" />
        </mxCell>
        <mxCell id="dnzGdEvmZZnzn72nh_tT-10" value="I&lt;font style=&quot;font-size: 11px;&quot;&gt;NPUT ASAL SEKOLAH&lt;/font&gt;" style="shape=parallelogram;html=1;strokeWidth=2;perimeter=parallelogramPerimeter;whiteSpace=wrap;rounded=1;arcSize=12;size=0.23;" parent="1" vertex="1">
          <mxGeometry x="360" y="650" width="100" height="60" as="geometry" />
        </mxCell>
        <mxCell id="5kT87oJKtSBSKoZ8AL6F-4" value="" style="edgeStyle=orthogonalEdgeStyle;rounded=0;orthogonalLoop=1;jettySize=auto;html=1;" parent="1" source="5kT87oJKtSBSKoZ8AL6F-1" target="5kT87oJKtSBSKoZ8AL6F-3" edge="1">
          <mxGeometry relative="1" as="geometry" />
        </mxCell>
        <mxCell id="5kT87oJKtSBSKoZ8AL6F-1" value="&lt;font style=&quot;font-size: 10px;&quot;&gt;INPUT MOTTO HIDUP&lt;/font&gt;" style="shape=parallelogram;html=1;strokeWidth=2;perimeter=parallelogramPerimeter;whiteSpace=wrap;rounded=1;arcSize=12;size=0.23;" parent="1" vertex="1">
          <mxGeometry x="360" y="780" width="100" height="60" as="geometry" />
        </mxCell>
        <mxCell id="5kT87oJKtSBSKoZ8AL6F-6" value="" style="edgeStyle=orthogonalEdgeStyle;rounded=0;orthogonalLoop=1;jettySize=auto;html=1;" parent="1" source="5kT87oJKtSBSKoZ8AL6F-3" target="5kT87oJKtSBSKoZ8AL6F-5" edge="1">
          <mxGeometry relative="1" as="geometry" />
        </mxCell>
        <mxCell id="5kT87oJKtSBSKoZ8AL6F-3" value="PRINT NAMA" style="rounded=1;whiteSpace=wrap;html=1;absoluteArcSize=1;arcSize=14;strokeWidth=2;" parent="1" vertex="1">
          <mxGeometry x="360" y="910" width="100" height="100" as="geometry" />
        </mxCell>
        <mxCell id="5kT87oJKtSBSKoZ8AL6F-8" value="" style="edgeStyle=orthogonalEdgeStyle;rounded=0;orthogonalLoop=1;jettySize=auto;html=1;" parent="1" source="5kT87oJKtSBSKoZ8AL6F-5" target="5kT87oJKtSBSKoZ8AL6F-7" edge="1">
          <mxGeometry relative="1" as="geometry" />
        </mxCell>
        <mxCell id="5kT87oJKtSBSKoZ8AL6F-5" value="PRINT NIM" style="rounded=1;whiteSpace=wrap;html=1;absoluteArcSize=1;arcSize=14;strokeWidth=2;" parent="1" vertex="1">
          <mxGeometry x="360" y="1080" width="100" height="100" as="geometry" />
        </mxCell>
        <mxCell id="5kT87oJKtSBSKoZ8AL6F-10" value="" style="edgeStyle=orthogonalEdgeStyle;rounded=0;orthogonalLoop=1;jettySize=auto;html=1;" parent="1" source="5kT87oJKtSBSKoZ8AL6F-7" target="5kT87oJKtSBSKoZ8AL6F-9" edge="1">
          <mxGeometry relative="1" as="geometry" />
        </mxCell>
        <mxCell id="5kT87oJKtSBSKoZ8AL6F-7" value="PRINT TTL" style="rounded=1;whiteSpace=wrap;html=1;absoluteArcSize=1;arcSize=14;strokeWidth=2;" parent="1" vertex="1">
          <mxGeometry x="360" y="1250" width="100" height="100" as="geometry" />
        </mxCell>
        <mxCell id="5kT87oJKtSBSKoZ8AL6F-12" value="" style="edgeStyle=orthogonalEdgeStyle;rounded=0;orthogonalLoop=1;jettySize=auto;html=1;" parent="1" source="5kT87oJKtSBSKoZ8AL6F-9" target="5kT87oJKtSBSKoZ8AL6F-11" edge="1">
          <mxGeometry relative="1" as="geometry" />
        </mxCell>
        <mxCell id="5kT87oJKtSBSKoZ8AL6F-9" value="PRINT ASAL DAERAH" style="rounded=1;whiteSpace=wrap;html=1;absoluteArcSize=1;arcSize=14;strokeWidth=2;" parent="1" vertex="1">
          <mxGeometry x="360" y="1420" width="100" height="100" as="geometry" />
        </mxCell>
        <mxCell id="5kT87oJKtSBSKoZ8AL6F-14" value="" style="edgeStyle=orthogonalEdgeStyle;rounded=0;orthogonalLoop=1;jettySize=auto;html=1;" parent="1" source="5kT87oJKtSBSKoZ8AL6F-11" target="5kT87oJKtSBSKoZ8AL6F-13" edge="1">
          <mxGeometry relative="1" as="geometry" />
        </mxCell>
        <mxCell id="5kT87oJKtSBSKoZ8AL6F-11" value="PRINT ASAL SEKOLAH" style="rounded=1;whiteSpace=wrap;html=1;absoluteArcSize=1;arcSize=14;strokeWidth=2;" parent="1" vertex="1">
          <mxGeometry x="360" y="1590" width="100" height="100" as="geometry" />
        </mxCell>
        <mxCell id="5kT87oJKtSBSKoZ8AL6F-16" value="" style="edgeStyle=orthogonalEdgeStyle;rounded=0;orthogonalLoop=1;jettySize=auto;html=1;" parent="1" source="5kT87oJKtSBSKoZ8AL6F-13" target="5kT87oJKtSBSKoZ8AL6F-15" edge="1">
          <mxGeometry relative="1" as="geometry" />
        </mxCell>
        <mxCell id="5kT87oJKtSBSKoZ8AL6F-13" value="PRINT MOTTO HIDUP" style="rounded=1;whiteSpace=wrap;html=1;absoluteArcSize=1;arcSize=14;strokeWidth=2;" parent="1" vertex="1">
          <mxGeometry x="360" y="1760" width="100" height="100" as="geometry" />
        </mxCell>
        <mxCell id="5kT87oJKtSBSKoZ8AL6F-19" value="" style="edgeStyle=orthogonalEdgeStyle;rounded=0;orthogonalLoop=1;jettySize=auto;html=1;" parent="1" source="5kT87oJKtSBSKoZ8AL6F-15" target="5kT87oJKtSBSKoZ8AL6F-18" edge="1">
          <mxGeometry relative="1" as="geometry" />
        </mxCell>
        <mxCell id="5kT87oJKtSBSKoZ8AL6F-15" value="&lt;font style=&quot;font-size: 10px;&quot;&gt;INPUT JUMLAH RUPIAH =&lt;br&gt;0 &amp;gt; 99999999999999999999&lt;br&gt;&lt;br&gt;&lt;/font&gt;" style="shape=parallelogram;html=1;strokeWidth=2;perimeter=parallelogramPerimeter;whiteSpace=wrap;rounded=1;arcSize=12;size=0.23;" parent="1" vertex="1">
          <mxGeometry x="317.5" y="1930" width="185" height="90" as="geometry" />
        </mxCell>
        <mxCell id="5kT87oJKtSBSKoZ8AL6F-21" value="" style="edgeStyle=orthogonalEdgeStyle;rounded=0;orthogonalLoop=1;jettySize=auto;html=1;" parent="1" source="5kT87oJKtSBSKoZ8AL6F-18" target="5kT87oJKtSBSKoZ8AL6F-20" edge="1">
          <mxGeometry relative="1" as="geometry" />
        </mxCell>
        <mxCell id="5kT87oJKtSBSKoZ8AL6F-18" value="&lt;font style=&quot;font-size: 10px;&quot;&gt;INPUT MATA UANG&amp;nbsp; =&lt;br&gt;US Dollar, YEN Jepang, Ringgit Malaysia&lt;br&gt;&lt;/font&gt;" style="shape=parallelogram;html=1;strokeWidth=2;perimeter=parallelogramPerimeter;whiteSpace=wrap;rounded=1;arcSize=12;size=0.23;" parent="1" vertex="1">
          <mxGeometry x="273.75" y="2070" width="272.5" height="120" as="geometry" />
        </mxCell>
        <mxCell id="5kT87oJKtSBSKoZ8AL6F-29" value="" style="edgeStyle=orthogonalEdgeStyle;rounded=0;orthogonalLoop=1;jettySize=auto;html=1;" parent="1" source="5kT87oJKtSBSKoZ8AL6F-20" target="5kT87oJKtSBSKoZ8AL6F-28" edge="1">
          <mxGeometry relative="1" as="geometry" />
        </mxCell>
        <mxCell id="5kT87oJKtSBSKoZ8AL6F-33" value="" style="edgeStyle=orthogonalEdgeStyle;rounded=0;orthogonalLoop=1;jettySize=auto;html=1;" parent="1" source="5kT87oJKtSBSKoZ8AL6F-20" target="5kT87oJKtSBSKoZ8AL6F-32" edge="1">
          <mxGeometry relative="1" as="geometry" />
        </mxCell>
        <mxCell id="5kT87oJKtSBSKoZ8AL6F-20" value="IF US Dollar&lt;br&gt;1 *&amp;nbsp;15.357,05" style="strokeWidth=2;html=1;shape=mxgraph.flowchart.decision;whiteSpace=wrap;" parent="1" vertex="1">
          <mxGeometry x="360" y="2240" width="100" height="100" as="geometry" />
        </mxCell>
        <mxCell id="5kT87oJKtSBSKoZ8AL6F-31" value="" style="edgeStyle=orthogonalEdgeStyle;rounded=0;orthogonalLoop=1;jettySize=auto;html=1;" parent="1" source="5kT87oJKtSBSKoZ8AL6F-28" target="5kT87oJKtSBSKoZ8AL6F-30" edge="1">
          <mxGeometry relative="1" as="geometry" />
        </mxCell>
        <mxCell id="5kT87oJKtSBSKoZ8AL6F-35" value="" style="edgeStyle=orthogonalEdgeStyle;rounded=0;orthogonalLoop=1;jettySize=auto;html=1;" parent="1" source="5kT87oJKtSBSKoZ8AL6F-28" target="5kT87oJKtSBSKoZ8AL6F-34" edge="1">
          <mxGeometry relative="1" as="geometry" />
        </mxCell>
        <mxCell id="5kT87oJKtSBSKoZ8AL6F-28" value="&lt;font style=&quot;font-size: 11px;&quot;&gt;IF YEN Jepang&lt;br&gt;1 *&amp;nbsp;103,56&lt;/font&gt;" style="strokeWidth=2;html=1;shape=mxgraph.flowchart.decision;whiteSpace=wrap;" parent="1" vertex="1">
          <mxGeometry x="540" y="2240" width="100" height="100" as="geometry" />
        </mxCell>
        <mxCell id="5kT87oJKtSBSKoZ8AL6F-37" value="" style="edgeStyle=orthogonalEdgeStyle;rounded=0;orthogonalLoop=1;jettySize=auto;html=1;" parent="1" source="5kT87oJKtSBSKoZ8AL6F-30" target="5kT87oJKtSBSKoZ8AL6F-36" edge="1">
          <mxGeometry relative="1" as="geometry" />
        </mxCell>
        <mxCell id="5kT87oJKtSBSKoZ8AL6F-47" value="" style="edgeStyle=orthogonalEdgeStyle;rounded=0;orthogonalLoop=1;jettySize=auto;html=1;" parent="1" source="5kT87oJKtSBSKoZ8AL6F-30" target="5kT87oJKtSBSKoZ8AL6F-46" edge="1">
          <mxGeometry relative="1" as="geometry" />
        </mxCell>
        <mxCell id="5kT87oJKtSBSKoZ8AL6F-30" value="&lt;font style=&quot;font-size: 11px;&quot;&gt;IF Ringgit &lt;br&gt;Malaysia&lt;br&gt;1 *&amp;nbsp;3.273,37&lt;/font&gt;" style="strokeWidth=2;html=1;shape=mxgraph.flowchart.decision;whiteSpace=wrap;" parent="1" vertex="1">
          <mxGeometry x="720" y="2240" width="100" height="100" as="geometry" />
        </mxCell>
        <mxCell id="JAHdt9f8_CS7W_Za1n9P-2" style="edgeStyle=orthogonalEdgeStyle;rounded=0;orthogonalLoop=1;jettySize=auto;html=1;" edge="1" parent="1" source="5kT87oJKtSBSKoZ8AL6F-32" target="JAHdt9f8_CS7W_Za1n9P-1">
          <mxGeometry relative="1" as="geometry" />
        </mxCell>
        <mxCell id="5kT87oJKtSBSKoZ8AL6F-32" value="&lt;font style=&quot;font-size: 11px;&quot;&gt;CALCULATE&lt;br&gt;&amp;nbsp;NILAI TUKAR&lt;/font&gt;" style="shape=parallelogram;html=1;strokeWidth=2;perimeter=parallelogramPerimeter;whiteSpace=wrap;rounded=1;arcSize=12;size=0.23;" parent="1" vertex="1">
          <mxGeometry x="360" y="2420" width="100" height="60" as="geometry" />
        </mxCell>
        <mxCell id="5kT87oJKtSBSKoZ8AL6F-54" style="edgeStyle=orthogonalEdgeStyle;rounded=0;orthogonalLoop=1;jettySize=auto;html=1;" parent="1" source="5kT87oJKtSBSKoZ8AL6F-34" edge="1">
          <mxGeometry relative="1" as="geometry">
            <mxPoint x="590" y="2590" as="targetPoint" />
          </mxGeometry>
        </mxCell>
        <mxCell id="5kT87oJKtSBSKoZ8AL6F-34" value="&lt;font style=&quot;font-size: 11px;&quot;&gt;CALCULATE&lt;br&gt;&amp;nbsp;NILAI TUKAR&lt;/font&gt;" style="shape=parallelogram;html=1;strokeWidth=2;perimeter=parallelogramPerimeter;whiteSpace=wrap;rounded=1;arcSize=12;size=0.23;" parent="1" vertex="1">
          <mxGeometry x="540" y="2420" width="100" height="60" as="geometry" />
        </mxCell>
        <mxCell id="5kT87oJKtSBSKoZ8AL6F-55" style="edgeStyle=orthogonalEdgeStyle;rounded=0;orthogonalLoop=1;jettySize=auto;html=1;" parent="1" source="5kT87oJKtSBSKoZ8AL6F-36" edge="1">
          <mxGeometry relative="1" as="geometry">
            <mxPoint x="770" y="2590" as="targetPoint" />
          </mxGeometry>
        </mxCell>
        <mxCell id="5kT87oJKtSBSKoZ8AL6F-36" value="&lt;font style=&quot;font-size: 11px;&quot;&gt;CALCULATE&lt;br&gt;&amp;nbsp;NILAI TUKAR&lt;/font&gt;" style="shape=parallelogram;html=1;strokeWidth=2;perimeter=parallelogramPerimeter;whiteSpace=wrap;rounded=1;arcSize=12;size=0.23;" parent="1" vertex="1">
          <mxGeometry x="720" y="2420" width="100" height="60" as="geometry" />
        </mxCell>
        <mxCell id="5kT87oJKtSBSKoZ8AL6F-38" value="END" style="strokeWidth=2;html=1;shape=mxgraph.flowchart.terminator;whiteSpace=wrap;" parent="1" vertex="1">
          <mxGeometry x="360" y="2810" width="100" height="60" as="geometry" />
        </mxCell>
        <mxCell id="5kT87oJKtSBSKoZ8AL6F-49" style="edgeStyle=orthogonalEdgeStyle;rounded=0;orthogonalLoop=1;jettySize=auto;html=1;exitX=0.5;exitY=0;exitDx=0;exitDy=0;" parent="1" source="5kT87oJKtSBSKoZ8AL6F-40" edge="1">
          <mxGeometry relative="1" as="geometry">
            <mxPoint x="940" y="2430" as="targetPoint" />
          </mxGeometry>
        </mxCell>
        <mxCell id="5kT87oJKtSBSKoZ8AL6F-52" value="" style="edgeStyle=orthogonalEdgeStyle;rounded=0;orthogonalLoop=1;jettySize=auto;html=1;" parent="1" edge="1">
          <mxGeometry relative="1" as="geometry">
            <mxPoint x="949.05" y="2480" as="sourcePoint" />
            <mxPoint x="949.05" y="2590" as="targetPoint" />
          </mxGeometry>
        </mxCell>
        <mxCell id="5kT87oJKtSBSKoZ8AL6F-40" value="Raise &lt;br&gt;ValueError" style="shape=parallelogram;html=1;strokeWidth=2;perimeter=parallelogramPerimeter;whiteSpace=wrap;rounded=1;arcSize=12;size=0.23;" parent="1" vertex="1">
          <mxGeometry x="890" y="2420" width="100" height="60" as="geometry" />
        </mxCell>
        <mxCell id="5kT87oJKtSBSKoZ8AL6F-46" value="" style="shape=waypoint;sketch=0;size=6;pointerEvents=1;points=[];fillColor=default;resizable=0;rotatable=0;perimeter=centerPerimeter;snapToPoint=1;strokeWidth=2;" parent="1" vertex="1">
          <mxGeometry x="940" y="2280" width="20" height="20" as="geometry" />
        </mxCell>
        <mxCell id="5kT87oJKtSBSKoZ8AL6F-50" style="edgeStyle=orthogonalEdgeStyle;rounded=0;orthogonalLoop=1;jettySize=auto;html=1;entryX=0.596;entryY=-0.011;entryDx=0;entryDy=0;entryPerimeter=0;" parent="1" source="5kT87oJKtSBSKoZ8AL6F-46" target="5kT87oJKtSBSKoZ8AL6F-40" edge="1">
          <mxGeometry relative="1" as="geometry" />
        </mxCell>
        <mxCell id="5kT87oJKtSBSKoZ8AL6F-53" style="edgeStyle=orthogonalEdgeStyle;rounded=0;orthogonalLoop=1;jettySize=auto;html=1;" parent="1" source="5kT87oJKtSBSKoZ8AL6F-51" edge="1">
          <mxGeometry relative="1" as="geometry">
            <mxPoint x="410" y="2590" as="targetPoint" />
          </mxGeometry>
        </mxCell>
        <mxCell id="5kT87oJKtSBSKoZ8AL6F-51" value="" style="shape=waypoint;sketch=0;size=6;pointerEvents=1;points=[];fillColor=default;resizable=0;rotatable=0;perimeter=centerPerimeter;snapToPoint=1;strokeWidth=2;rounded=1;arcSize=12;" parent="1" vertex="1">
          <mxGeometry x="940" y="2580" width="20" height="20" as="geometry" />
        </mxCell>
        <mxCell id="5kT87oJKtSBSKoZ8AL6F-56" value="TRUE" style="text;html=1;align=center;verticalAlign=middle;resizable=0;points=[];autosize=1;strokeColor=none;fillColor=none;" parent="1" vertex="1">
          <mxGeometry x="430" y="2328" width="60" height="30" as="geometry" />
        </mxCell>
        <mxCell id="5kT87oJKtSBSKoZ8AL6F-57" value="FALSE" style="text;html=1;align=center;verticalAlign=middle;resizable=0;points=[];autosize=1;strokeColor=none;fillColor=none;" parent="1" vertex="1">
          <mxGeometry x="430" y="2248" width="60" height="30" as="geometry" />
        </mxCell>
        <mxCell id="5kT87oJKtSBSKoZ8AL6F-58" value="TRUE" style="text;html=1;align=center;verticalAlign=middle;resizable=0;points=[];autosize=1;strokeColor=none;fillColor=none;" parent="1" vertex="1">
          <mxGeometry x="630" y="2328" width="60" height="30" as="geometry" />
        </mxCell>
        <mxCell id="5kT87oJKtSBSKoZ8AL6F-59" value="FALSE" style="text;html=1;align=center;verticalAlign=middle;resizable=0;points=[];autosize=1;strokeColor=none;fillColor=none;" parent="1" vertex="1">
          <mxGeometry x="630" y="2248" width="60" height="30" as="geometry" />
        </mxCell>
        <mxCell id="5kT87oJKtSBSKoZ8AL6F-60" value="FALSE" style="text;html=1;align=center;verticalAlign=middle;resizable=0;points=[];autosize=1;strokeColor=none;fillColor=none;" parent="1" vertex="1">
          <mxGeometry x="800" y="2248" width="60" height="30" as="geometry" />
        </mxCell>
        <mxCell id="5kT87oJKtSBSKoZ8AL6F-61" value="TRUE" style="text;html=1;align=center;verticalAlign=middle;resizable=0;points=[];autosize=1;strokeColor=none;fillColor=none;" parent="1" vertex="1">
          <mxGeometry x="790" y="2328" width="60" height="30" as="geometry" />
        </mxCell>
        <mxCell id="JAHdt9f8_CS7W_Za1n9P-3" style="edgeStyle=orthogonalEdgeStyle;rounded=0;orthogonalLoop=1;jettySize=auto;html=1;entryX=0.5;entryY=0;entryDx=0;entryDy=0;entryPerimeter=0;" edge="1" parent="1" source="JAHdt9f8_CS7W_Za1n9P-1" target="5kT87oJKtSBSKoZ8AL6F-38">
          <mxGeometry relative="1" as="geometry" />
        </mxCell>
        <mxCell id="JAHdt9f8_CS7W_Za1n9P-1" value="PRINT HASIL" style="rounded=1;whiteSpace=wrap;html=1;absoluteArcSize=1;arcSize=14;strokeWidth=2;" vertex="1" parent="1">
          <mxGeometry x="360" y="2610" width="100" height="100" as="geometry" />
        </mxCell>
      </root>
    </mxGraphModel>
  </diagram>
</mxfile>
